<svg class="select-currncy ETH" width="26" height="27" viewBox="0 0 24 25" fill="none" xmlns="http://www.w3.org/2000/svg">
<g clip-path="url(#clip0_2133_438)">
<path d="M12 24.745C18.6274 24.745 24 19.3724 24 12.745C24 6.11758 18.6274 0.744995 12 0.744995C5.37258 0.744995 0 6.11758 0 12.745C0 19.3724 5.37258 24.745 12 24.745Z" fill="#218C6F"/>
<path d="M11.3489 20.1851V18.7182C10.5531 18.643 9.90437 18.4657 9.40286 18.1862C8.91225 17.9069 8.53068 17.5845 8.25811 17.2191C7.98554 16.843 7.78932 16.4776 7.66939 16.123C7.56036 15.7683 7.49493 15.4728 7.47314 15.2364C7.45133 15 7.44043 14.8818 7.44043 14.8818H9.05945C9.05945 14.8818 9.06489 14.957 9.07579 15.1075C9.09761 15.2472 9.14121 15.4298 9.20661 15.6555C9.27204 15.8704 9.38652 16.0961 9.55005 16.3325C9.71359 16.5582 9.93708 16.7678 10.2205 16.9612C10.5149 17.1439 10.891 17.2675 11.3489 17.3319V13.1248L11.2835 13.1086C10.5858 12.9582 9.96979 12.754 9.43557 12.4961C8.91225 12.2382 8.50341 11.8943 8.20905 11.4645C7.92559 11.0346 7.78385 10.4919 7.78385 9.83641C7.78385 9.1809 7.94738 8.6167 8.27445 8.14388C8.61245 7.66028 9.05397 7.28418 9.59911 7.01552C10.1442 6.73611 10.7275 6.56418 11.3489 6.49969V5.06506H12.6409V6.53192C13.3168 6.61791 13.8728 6.78985 14.3089 7.04775C14.7559 7.30566 15.1048 7.60119 15.3556 7.93431C15.6063 8.2567 15.7862 8.5791 15.8952 8.90149C16.0152 9.21313 16.0915 9.47103 16.1242 9.67522C16.1569 9.87939 16.1732 9.98149 16.1732 9.98149H14.5542C14.5542 9.98149 14.5379 9.89552 14.5052 9.72356C14.4725 9.55162 14.3962 9.34208 14.2762 9.0949C14.1563 8.84775 13.9655 8.61133 13.7039 8.38566C13.4531 8.15998 13.0988 7.9988 12.6409 7.90208V11.8675L12.7554 11.8997C13.1805 11.9964 13.6057 12.1146 14.0309 12.2543C14.4561 12.394 14.8377 12.5821 15.1757 12.8185C15.5246 13.0549 15.8026 13.3719 16.0097 13.7696C16.2168 14.1564 16.3204 14.6454 16.3204 15.2364C16.3204 15.8704 16.1569 16.4346 15.8298 16.9289C15.5136 17.4233 15.0776 17.8262 14.5215 18.1379C13.9764 18.4496 13.3495 18.643 12.6409 18.7182V20.1851H11.3489ZM9.37015 9.82028C9.37015 10.2824 9.52824 10.6478 9.84441 10.9164C10.1606 11.1851 10.6621 11.4054 11.3489 11.5773V7.85372C10.7493 7.93969 10.2696 8.16536 9.90981 8.53074C9.55005 8.89611 9.37015 9.32595 9.37015 9.82028ZM14.7341 15.2364C14.7341 14.6991 14.5488 14.2961 14.1781 14.0275C13.8074 13.7588 13.295 13.5492 12.6409 13.3988V17.3319C13.2296 17.2245 13.7257 16.988 14.129 16.6227C14.5324 16.2573 14.7341 15.7952 14.7341 15.2364Z" fill="white"/>
</g>
<defs>
<clipPath id="clip0_2133_438">
<rect width="24" height="24" fill="white" transform="translate(0 0.744995)"/>
</clipPath>
</defs>
</svg>
