<svg width="21" height="21" viewBox="0 0 21 21" fill="none" xmlns="http://www.w3.org/2000/svg">
<path d="M12.0134 2.02592H17.4474L6.50709 12.9808C5.77026 13.9266 6.86377 14.98 7.82465 14.2017C8.98423 13.2631 10.0203 11.8336 11.177 10.8538L18.7401 3.3176V8.79528C18.7401 8.81203 18.843 9.0608 18.8645 9.10146C19.2298 9.8004 20.3276 9.64157 20.5 8.87948L20.4751 0.794997C20.3583 0.522787 20.117 0.307028 19.8187 0.254883L11.8731 0.25871C10.9113 0.513219 11.0238 1.89245 12.0139 2.02592H12.0134ZM14.479 3.50896H2.86894C1.8348 3.50896 0.541653 4.83413 0.5 5.878V17.8844C0.664696 19.1354 1.65814 20.1109 2.91538 20.2549L14.8376 20.2525C15.9728 20.2037 17.2564 18.9178 17.2564 17.7897V6.28368L15.4859 8.07864V17.5036C15.4706 18.0174 15.0928 18.4872 14.5532 18.4848L2.90676 18.4456C2.5812 18.3092 2.28436 18.0198 2.26904 17.6476L2.29346 5.94737C2.43901 5.55316 2.77845 5.29674 3.20264 5.27713H12.6827L14.479 3.50896Z" fill="white"/>
<path d="M14.479 3.50879L12.6827 5.27791H3.20264C2.77845 5.29657 2.43901 5.55299 2.29346 5.9472L2.26904 17.6474C2.28436 18.0196 2.5812 18.3095 2.90676 18.4454L14.5532 18.4846C15.0928 18.487 15.4706 18.0172 15.4864 17.5034V8.07847L17.2559 6.28351V17.789C17.2559 18.9176 15.9723 20.2035 14.8371 20.2518L2.9149 20.2542C1.65814 20.1107 0.664696 19.1353 0.5 17.8842V5.87783C0.541653 4.83396 1.8348 3.50879 2.86894 3.50879H14.479Z" fill="#0038B8"/>
<path d="M12.0134 2.02592C11.0233 1.89245 10.9108 0.513219 11.8727 0.25871L19.8183 0.254883C20.117 0.307028 20.3578 0.522787 20.4747 0.794997L20.4996 8.87948C20.3267 9.64205 19.2294 9.80088 18.8641 9.10146C18.8426 9.0608 18.7396 8.81155 18.7396 8.79528V3.3176L11.1765 10.8538C10.0198 11.8336 8.98379 13.2631 7.82421 14.2017C6.86285 14.98 5.76983 13.9266 6.50665 12.9808L17.4474 2.02592H12.0134Z" fill="#0038B8"/>
</svg>
